<?xml version="1.0" encoding="UTF-8" standalone="no"?>
<svg
   xmlns:dc="http://purl.org/dc/elements/1.1/"
   xmlns:cc="http://creativecommons.org/ns#"
   xmlns:rdf="http://www.w3.org/1999/02/22-rdf-syntax-ns#"
   xmlns:svg="http://www.w3.org/2000/svg"
   xmlns="http://www.w3.org/2000/svg"
   viewBox="0 0 264.56 98.26667"
   height="98.26667"
   width="264.56"
   xml:space="preserve"
   id="svg2"
   version="1.1"><metadata
     id="metadata8"><rdf:RDF><cc:Work
         rdf:about=""><dc:format>image/svg+xml</dc:format><dc:type
           rdf:resource="http://purl.org/dc/dcmitype/StillImage" /></cc:Work></rdf:RDF></metadata><defs
     id="defs6" /><g
     transform="matrix(1.3333333,0,0,-1.3333333,0,98.266667)"
     id="g10"><g
       transform="scale(0.1)"
       id="g12"><path
         id="path14"
         style="fill:#be1e3c;fill-opacity:1;fill-rule:nonzero;stroke:none"
         d="M 1984.25,0 H 0 V 737.012 H 1984.25 V 0" /><path
         id="path16"
         style="fill:#ffffff;fill-opacity:1;fill-rule:evenodd;stroke:none"
         d="m 410.168,404.02 c 4.312,2.546 9.527,5.449 12.535,7.937 3.723,3.059 8.789,9.766 8.82,12.344 -5.722,6.496 -4.765,12.922 -5.085,19.043 -0.071,1.367 -1.79,2.804 -4.192,1.64 -6.57,-3.183 -14.211,-5.535 -14.211,-5.535 0,0 -1.597,-9.504 0.528,-11.73 2.199,-2.332 7.207,-1.512 6.82,-4.91 -0.266,-2.188 -3.508,-5.95 -5.598,-7.598 -3.535,-2.805 -7.781,-5.168 -9.972,-6.203 0,0 -6.473,2.305 -15.262,1.465 -3.446,-0.321 -3.633,-3.145 -3.633,-3.145 0,0 -1.16,-0.047 -2.039,-0.43 -0.996,-0.429 -1.699,-1.406 -1.699,-1.406 0,0 0.718,-0.906 1.902,-1.375 0.781,-0.312 1.902,-0.254 1.902,-0.254 0.332,-1.269 1.528,-2.609 3.262,-2.851 4.359,-0.625 7.246,-0.157 9.582,0.41 1.328,0.332 2.258,0.137 2.61,-0.918 0.339,-1.047 -0.625,-1.867 -1.489,-2.383 -3.347,-1.973 -5.703,-3.437 -7.066,-5.117 -1.379,-1.66 -2.07,-3.879 -1.391,-5.617 -0.34,-0.535 -0.828,-1.172 -1.062,-2.071 -0.242,-0.898 -0.188,-1.796 0.066,-2.742 0.656,-0.031 1.274,0.067 1.965,0.34 0.703,0.274 1.394,0.656 1.934,1.496 1.757,-0.578 4.043,-0.176 5.703,2.254 1.394,2.024 3.047,5.637 3.523,7.09 0.473,1.465 1.098,1.789 1.938,1.613 0.742,-0.156 1.343,-0.656 0.925,-2.988 -0.3,-1.68 -0.261,-5.207 0.032,-6.816 1.043,-5.743 4.168,-5.383 4.168,-5.383 0,0 0.234,-1.016 0.879,-1.825 0.671,-0.812 1.535,-1.347 2.316,-1.562 0.351,0.781 0.641,1.953 0.523,2.918 -0.117,0.969 -0.41,1.621 -0.41,1.621 0.774,0.598 1.778,1.797 1.313,4.231 -0.864,4.167 -2.492,6.113 -3.684,7.949 -0.762,1.218 -0.488,2.156 0.242,2.695 0.742,0.516 1.848,0.359 2.817,-1.047 1.113,-1.57 2.633,-3.738 5.64,-5.183 2.035,-0.977 3.633,-0.637 4.59,0.156 0,0 0.871,-0.52 1.613,-0.762 0.735,-0.254 1.575,-0.351 2.454,-0.254 -0.137,0.828 -0.372,1.641 -0.707,2.403 -0.348,0.73 -0.719,1.191 -1.29,1.718 0.149,1.121 -0.105,3.25 -1.042,4.2 -3.309,3.339 -10.77,6.582 -10.77,6.582" /><path
         id="path18"
         style="fill:#ffffff;fill-opacity:1;fill-rule:evenodd;stroke:none"
         d="m 376.238,540.941 c 0,0 4.922,-6.511 7.707,-4.531 2.227,1.594 1.035,4.192 -0.675,5.977 -2.325,2.453 -4.754,0.664 -7.032,-1.446 z M 473.32,389.848 c -0.898,-0.086 -1.738,0 -2.468,0.246 -0.747,0.261 -1.614,0.781 -1.614,0.781 -0.957,-0.812 -2.558,-1.145 -4.597,-0.156 -3,1.445 -4.524,3.601 -5.649,5.195 -0.972,1.387 -2.066,1.551 -2.808,1.024 -0.746,-0.536 -1.008,-1.473 -0.246,-2.696 1.179,-1.844 2.824,-3.769 3.679,-7.957 0.488,-2.414 -0.547,-3.633 -1.304,-4.219 0,0 0.3,-0.675 0.417,-1.632 0.118,-0.965 -0.183,-2.137 -0.515,-2.918 -0.805,0.214 -1.672,0.75 -2.324,1.562 -0.664,0.809 -0.891,1.824 -0.891,1.824 0,0 -3.125,-0.359 -4.172,5.383 -0.301,1.61 -0.332,5.156 -0.027,6.836 0.422,2.313 -0.188,2.82 -0.93,2.977 -0.848,0.195 -1.473,-0.145 -1.949,-1.602 -0.473,-1.465 -2.129,-5.066 -3.52,-7.109 -1.668,-2.43 -3.964,-2.84 -5.703,-2.254 -0.535,-0.84 -1.25,-1.223 -1.941,-1.496 -0.703,-0.274 -1.32,-0.379 -1.953,-0.34 -0.274,0.965 -0.332,1.863 -0.086,2.742 0.23,0.899 0.719,1.535 1.051,2.07 -0.672,1.75 0.023,3.965 1.41,5.637 1.375,1.68 3.718,3.133 7.078,5.117 0.847,0.508 1.836,1.336 1.496,2.383 -0.363,1.063 -1.289,1.25 -2.629,0.918 -2.324,-0.578 -5.227,-1.027 -9.578,-0.422 -1.75,0.246 -2.949,1.594 -3.281,2.871 0,0 -1.118,-0.058 -1.907,0.254 -1.171,0.481 -1.882,1.379 -1.882,1.379 0,0 0.679,0.965 1.687,1.406 0.879,0.379 2.039,0.43 2.039,0.43 0,0 0.156,2.578 3.586,3.066 6.68,0.918 13.008,-1.308 15.098,-1.925 1.699,3.879 3.918,14.062 2.91,19.894 -1.043,6.055 -9.016,4.395 -11.836,10.039 -3.535,7.071 -2.754,17.782 -7.59,18.699 -7.957,1.516 -1.519,-4.734 -29.578,-11.609 -8.594,-2.109 -15.305,-0.91 -20.09,-5.84 -1.875,-1.945 -5.144,-10.976 -9.715,-16.836 -8.047,-10.324 -14.121,-13.312 -14.121,-13.312 1.153,-0.488 5.586,-2.508 8.035,-5.469 0.864,-1.004 1.196,-3.066 1.047,-4.207 0.574,-0.508 0.938,-0.969 1.27,-1.719 0.351,-0.742 0.586,-1.562 0.742,-2.402 -0.898,-0.078 -1.738,0 -2.473,0.254 -0.742,0.262 -1.609,0.781 -1.609,0.781 -0.957,-0.812 -2.559,-1.144 -4.602,-0.176 -2.996,1.465 -4.531,3.621 -5.64,5.215 -0.981,1.387 -2.074,1.551 -2.817,1.024 -0.742,-0.528 -1.023,-1.473 -0.242,-2.696 1.172,-1.843 2.82,-3.769 3.684,-7.957 0.484,-2.422 -0.547,-3.633 -1.313,-4.218 0,0 0.293,-0.676 0.41,-1.641 0.11,-0.957 -0.171,-2.141 -0.523,-2.93 -0.781,0.223 -1.652,0.77 -2.316,1.582 -0.657,0.809 -0.899,1.824 -0.899,1.824 0,0 -3.113,-0.359 -4.172,5.383 -0.281,1.61 -0.332,5.157 -0.027,6.824 0.422,2.325 -0.176,2.833 -0.93,2.989 -0.84,0.176 -1.465,-0.145 -1.929,-1.602 -0.481,-1.465 -2.129,-5.086 -3.516,-7.109 -1.672,-2.43 -3.977,-2.832 -5.727,-2.254 -0.535,-0.84 -1.226,-1.223 -1.922,-1.496 -0.71,-0.274 -1.32,-0.391 -1.972,-0.36 -0.254,0.977 -0.313,1.875 -0.086,2.762 0.254,0.899 0.738,1.535 1.07,2.07 -0.691,1.75 0.012,3.965 1.391,5.637 1.394,1.66 3.738,3.145 7.078,5.117 0.867,0.508 1.836,1.336 1.492,2.391 -0.351,1.055 -1.266,1.23 -2.605,0.91 -2.332,-0.558 -5.246,-1.035 -9.598,-0.41 -1.75,0.234 -2.934,1.582 -3.273,2.859 0,0 -1.114,-0.058 -1.907,0.266 -1.172,0.457 -1.89,1.367 -1.89,1.367 0,0 0.691,0.977 1.687,1.406 0.899,0.379 2.039,0.438 2.039,0.438 0,0 0.696,2.727 3.946,3.156 8.808,1.18 16.425,-1.933 16.425,-1.933 0,0 10.664,7.097 13.996,11.933 2.637,3.828 4.786,8.399 5.508,12.508 0.899,5.09 -0.547,5.598 -2.109,6.789 -2.156,1.602 -5.606,3.809 -9.871,8.828 -2.453,2.871 -5.656,9.961 -5.774,16.934 -3.418,3.008 -7.871,8.191 -11.023,12.312 0.086,-1.843 0.269,-5.547 -1.274,-9.558 -0.464,-1.242 -2.351,-2.285 -3.457,-2.61 -0.261,-0.722 -0.546,-1.238 -1.101,-1.843 -0.547,-0.606 -1.211,-1.133 -1.922,-1.602 -0.422,0.781 -0.676,1.582 -0.727,2.363 -0.054,0.789 0.09,1.778 0.09,1.778 -1.113,0.574 -2.058,1.922 -1.953,4.179 0.176,3.328 1.563,5.575 2.578,7.227 0.907,1.445 0.637,2.519 -0.144,2.996 -0.782,0.48 -1.77,0.344 -2.563,-0.828 -1.258,-1.809 -2.39,-4.082 -5.894,-6.496 -2.051,-1.406 -3.559,-0.926 -4.407,-0.449 0,0 -0.507,-0.536 -1.347,-1.016 -0.84,-0.477 -2.039,-0.684 -2.891,-0.664 -0.105,0.812 0.051,1.808 0.535,2.754 0.493,0.929 1.34,1.535 1.34,1.535 0,0 -1.555,2.715 3.32,5.926 1.368,0.898 4.622,2.324 6.27,2.715 2.305,0.519 2.539,1.261 2.395,2.011 -0.161,0.852 -0.696,1.282 -2.227,1.153 -1.547,-0.125 -5.512,-0.008 -7.922,0.468 -2.898,0.578 -4.16,2.551 -4.316,4.368 -0.989,0.175 -1.602,0.664 -2.129,1.199 -0.528,0.547 -0.867,1.074 -1.094,1.679 0.789,0.625 1.594,1.016 2.512,1.145 0.918,0.145 1.687,-0.07 2.32,-0.168 1.34,1.309 3.645,1.535 5.734,0.91 2.063,-0.605 4.336,-2.187 7.461,-4.504 0.813,-0.593 1.961,-1.172 2.786,-0.449 0.835,0.754 0.652,1.66 -0.176,2.766 -1.426,1.922 -2.989,4.414 -4.121,8.672 -0.469,1.707 0.308,3.328 1.343,4.121 0,0 -0.476,1.015 -0.496,1.855 -0.027,1.27 0.52,2.285 0.52,2.285 0,0 1.18,-0.254 1.961,-1.015 0.691,-0.664 1.203,-1.711 1.203,-1.711 0,0 3.289,0.695 4.93,-2.352 3.195,-5.898 2.609,-10.586 2.277,-12.48 2.422,-4.551 4.883,-6.719 7.793,-9.512 1.68,-1.602 4.422,-3.215 7.613,-4.766 2.071,3.282 4.953,6.387 8.586,9.95 4.277,4.21 7.324,6.035 10.496,8.957 3.813,3.503 5.715,7.058 5.715,7.058 0,0 -6.523,1.965 -13.367,-0.144 -0.766,1.25 -2.199,3.914 -0.942,5.625 5.122,2.097 12.715,1.757 16.165,0.711 1.14,1.777 3.476,6.183 0.71,8.554 -3.535,3.039 -12.488,3.731 -18.906,0.391 -1.582,0.851 -3.816,3.957 -2.312,7.336 -3.477,3.769 -1.192,5.027 0.039,5.547 4.023,1.738 7.324,1.101 11.047,1.269 0.054,1.492 0.047,2.324 0.75,4.082 1.726,4.258 12.824,2.91 16.98,2.938 2.863,0.019 5.285,0.558 7.735,1.035 3.312,0.703 3.488,-2.606 2.621,-3.934 l -2.207,-2.929 c 3.336,-1.348 6.777,-3.371 8.035,-6.993 0.957,-2.773 0.234,-5.929 0.957,-8.437 0.808,-2.832 2.285,-3.809 3.574,-6.164 2.012,-3.692 2.402,-6.524 2.871,-10.438 0.399,-3.359 -2.898,-3.398 -4.172,-2.421 -0.699,0.535 -2.715,3.171 -4.91,2.91 -1.387,-0.157 -2.473,-2.149 -3.008,-3.594 0,0 3.137,-5.598 4.153,-10.422 0.867,-4.102 0.496,-7.461 0.054,-10.82 -0.398,-3.348 -3.836,-2.449 -4.683,-1.133 -0.664,1.027 -1.743,3.652 -3.957,3.984 -2.344,0.313 -4.395,-2.234 -4.676,-4.832 -0.305,-2.812 0,-5.254 1.543,-7.492 6.785,-9.941 37.832,8.918 51.277,-1.777 0.828,3.605 1.231,7.441 0.481,10.695 -1.645,7.168 -13.996,10.594 -19.836,18.777 v 0.032 c -1.133,1.64 -2.071,3.484 -2.559,5.566 -2.246,9.539 4.141,22.852 7.449,28.848 -2.578,4.062 -1.382,12.129 0.078,15.633 1.75,4.25 3.165,6.398 5.227,9.25 2.07,2.859 7.207,2.519 7.207,0.781 0,0 -5.977,-6.926 -3.73,-9.348 2.011,-2.168 13.007,5.402 5.019,-11.433 -2.883,-6.008 -6.641,-7.864 -9.773,-7.415 -3.285,-6.523 -7.336,-16.746 -5.41,-24.375 0.781,-3.093 2.761,-5.437 5.25,-7.507 h 0.031 c 6.269,-5.188 15.808,-8.614 17.773,-18.008 1.145,-5.586 -0.5,-13.008 -2.137,-18.36 2.379,-5.421 2.489,-11.367 3.934,-16.464 0.715,-2.012 2.188,-5.246 4.59,-4.981 2.168,0.235 3.309,2.461 4.172,3.75 1.094,1.66 4.09,1.961 4.59,-1.379 0.504,-3.347 1.746,-6.609 1.746,-10.234 -0.039,-14.461 -4.707,-25.867 -8.25,-34.766 0,0 4.148,-1.035 9.843,-4.922 4.024,-2.742 2.872,-5.175 2.711,-6.308 0.571,-0.516 0.93,-0.985 1.282,-1.719 0.332,-0.75 0.578,-1.57 0.722,-2.402" /><path
         id="path20"
         style="fill:#ffffff;fill-opacity:1;fill-rule:evenodd;stroke:none"
         d="m 345.203,521.129 c 8.098,-3.41 18.11,1.855 18.098,2.969 -12.403,-1.828 -17.012,1.699 -14.055,7.812 -8.887,-1.055 -8.141,-9.055 -4.043,-10.781" /><path
         id="path22"
         style="fill:#ffffff;fill-opacity:1;fill-rule:evenodd;stroke:none"
         d="m 410.168,213.898 c 4.312,2.547 9.527,5.45 12.535,7.938 3.723,3.059 8.789,9.758 8.82,12.336 -5.722,6.504 -4.765,12.93 -5.085,19.051 -0.071,1.355 -1.79,2.804 -4.192,1.632 -6.57,-3.175 -14.211,-5.539 -14.211,-5.539 0,0 -1.597,-9.5 0.528,-11.726 2.199,-2.324 7.207,-1.504 6.82,-4.902 -0.266,-2.192 -3.508,-5.958 -5.598,-7.61 -3.535,-2.801 -7.781,-5.156 -9.972,-6.199 0,0 -6.473,2.305 -15.262,1.473 -3.446,-0.321 -3.633,-3.145 -3.633,-3.145 0,0 -1.16,-0.059 -2.039,-0.43 -0.996,-0.437 -1.699,-1.406 -1.699,-1.406 0,0 0.718,-0.918 1.89,-1.379 0.793,-0.32 1.914,-0.262 1.914,-0.262 0.332,-1.269 1.528,-2.597 3.262,-2.839 4.359,-0.625 7.246,-0.157 9.582,0.398 1.328,0.332 2.258,0.149 2.61,-0.906 0.339,-1.047 -0.625,-1.867 -1.489,-2.395 -3.347,-1.972 -5.691,-3.425 -7.066,-5.105 -1.379,-1.672 -2.07,-3.891 -1.391,-5.625 -0.332,-0.528 -0.828,-1.172 -1.062,-2.063 -0.242,-0.898 -0.188,-1.797 0.066,-2.754 0.664,-0.031 1.274,0.079 1.965,0.352 0.703,0.273 1.394,0.645 1.934,1.484 1.757,-0.578 4.043,-0.164 5.71,2.266 1.387,2.023 3.032,5.625 3.516,7.09 0.473,1.465 1.098,1.777 1.938,1.601 0.742,-0.156 1.343,-0.644 0.925,-2.976 -0.3,-1.684 -0.261,-5.215 0.032,-6.817 1.043,-5.753 4.168,-5.39 4.168,-5.39 0,0 0.234,-1.008 0.879,-1.817 0.664,-0.812 1.535,-1.347 2.316,-1.562 0.351,0.769 0.641,1.949 0.523,2.918 -0.117,0.957 -0.41,1.621 -0.41,1.621 0.774,0.598 1.778,1.797 1.313,4.23 -0.864,4.168 -2.492,6.102 -3.684,7.95 -0.762,1.211 -0.488,2.144 0.242,2.683 0.742,0.528 1.848,0.371 2.817,-1.035 1.113,-1.582 2.633,-3.738 5.64,-5.184 2.035,-0.976 3.633,-0.636 4.59,0.157 0,0 0.871,-0.52 1.613,-0.766 0.735,-0.262 1.575,-0.348 2.454,-0.262 -0.137,0.84 -0.372,1.653 -0.707,2.403 -0.348,0.742 -0.719,1.203 -1.29,1.718 0.137,1.133 -0.105,3.262 -1.042,4.2 -3.309,3.351 -10.77,6.593 -10.77,6.593" /><path
         id="path24"
         style="fill:#ffffff;fill-opacity:1;fill-rule:evenodd;stroke:none"
         d="m 383.945,346.281 c -2.785,-1.972 -7.707,4.539 -7.707,4.539 2.278,2.11 4.707,3.887 7.032,1.446 1.71,-1.797 2.89,-4.395 0.675,-5.985 z m 88.653,-144.152 c -0.352,0.734 -0.711,1.191 -1.282,1.719 0.161,1.132 1.313,3.554 -2.711,6.3 -5.683,3.883 -9.843,4.922 -9.843,4.922 3.543,8.907 8.203,20.301 8.25,34.766 0,3.633 -1.242,6.894 -1.746,10.242 -0.5,3.34 -3.496,3.039 -4.59,1.367 -0.863,-1.289 -2.004,-3.504 -4.184,-3.75 -2.39,-0.261 -3.863,2.969 -4.578,4.981 -1.133,3.996 -1.57,8.457 -2.754,12.844 4.192,0.945 7.61,3.132 10.586,5.652 5.457,4.648 5.012,11.848 2.07,17.609 -2.402,4.61 -5.41,6.446 -19.961,11.844 -5.8,2.156 -10.007,4.668 -13,7.941 -1.113,1.289 -2.246,2.95 -3.003,4.508 -1.504,3.071 -0.364,6.582 2.183,8.93 0.61,0.535 1.867,1.434 3.344,2.449 4.473,-3.254 16.668,-1.531 21.402,0.137 5.473,1.933 9.668,4.414 13.559,6.633 3.855,2.285 3.238,6.824 1.148,6.804 0,0 -14.234,-6.004 -16.668,-3.64 -2.207,2.144 2.774,9.843 -12.336,3.183 -5.449,-2.402 -9.468,-5.703 -9.214,-8.871 -5.286,-2.847 -10.375,-7.488 -9.614,-13.707 0.227,-2.07 1.242,-4.66 2.649,-6.75 h 0.058 c 4.129,-5.906 12.371,-10.351 21.36,-13.281 8.613,-2.82 11.941,-4.387 13.433,-10.106 1.977,-7.492 -2.09,-12.074 -10.308,-13.339 -0.996,1.836 -2.168,3.367 -3.227,4.453 -11.629,12 -45.203,-8.117 -51.988,1.824 -1.543,2.227 -1.848,4.68 -1.543,7.488 0.269,2.602 2.332,5.149 4.676,4.828 2.214,-0.332 3.293,-2.953 3.957,-3.976 0.847,-1.317 4.273,-2.215 4.683,1.125 0.442,3.359 0.813,6.719 -0.054,10.828 -1.016,4.824 -4.153,10.41 -4.153,10.41 0.535,1.445 1.621,3.449 3.008,3.606 2.195,0.253 4.211,-2.375 4.91,-2.911 1.274,-0.988 4.571,-0.937 4.16,2.422 -0.457,3.914 -0.847,6.746 -2.859,10.43 -1.289,2.363 -2.766,3.328 -3.574,6.16 -0.723,2.512 0,5.664 -0.957,8.449 -1.258,3.614 -4.707,5.645 -8.035,6.993 l 2.207,2.918 c 0.867,1.332 0.691,4.652 -2.621,3.941 -2.45,-0.481 -4.872,-1.016 -7.735,-1.027 -4.148,-0.028 -15.254,1.32 -16.98,-2.946 -0.703,-1.765 -0.696,-2.586 -0.75,-4.082 -3.723,-0.172 -7.024,0.473 -11.047,-1.277 -1.231,-0.516 -3.516,-1.777 -0.039,-5.535 -1.504,-3.391 0.73,-6.485 2.312,-7.344 6.418,3.348 15.371,2.656 18.906,-0.391 2.766,-2.375 0.43,-6.769 -0.71,-8.554 -3.45,1.043 -11.043,1.394 -16.165,-0.703 -1.257,-1.711 0.168,-4.375 0.942,-5.637 6.844,2.109 13.367,0.156 13.367,0.156 0,0 -1.902,-3.562 -5.715,-7.07 -3.179,-2.918 -6.219,-4.735 -10.496,-8.946 -4.14,-4.074 -7.312,-7.539 -9.414,-11.355 -5.281,1.27 -10.242,2.781 -12.996,4.668 -3.352,2.266 -6.137,3.984 -9.289,8.066 0.012,1.914 -0.195,6.641 -4.324,11.922 -2.129,2.735 -5.266,1.504 -5.266,1.504 0,0 -0.676,0.938 -1.465,1.485 -0.898,0.605 -2.097,0.664 -2.097,0.664 0,0 -0.372,-1.082 -0.129,-2.332 0.144,-0.832 0.793,-1.75 0.793,-1.75 -0.879,-0.957 -1.379,-2.684 -0.637,-4.286 1.824,-4.015 3.777,-6.203 5.516,-7.863 1,-0.945 1.339,-1.805 0.636,-2.695 -0.691,-0.852 -1.914,-0.469 -2.812,-0.028 -3.477,1.766 -5.989,2.938 -8.125,3.192 -2.156,0.265 -4.395,-0.332 -5.489,-1.856 -0.644,-0.007 -1.445,0.079 -2.324,-0.222 -0.879,-0.274 -1.609,-0.801 -2.273,-1.543 0.32,-0.567 0.738,-1.02 1.355,-1.465 0.606,-0.449 1.297,-0.832 2.293,-0.844 0.461,-1.765 2.043,-3.492 4.985,-3.582 2.468,-0.066 6.382,0.488 7.886,0.871 1.489,0.379 2.09,0.047 2.395,-0.773 0.266,-0.711 0.156,-1.485 -2.024,-2.383 -1.57,-0.664 -4.531,-2.605 -5.718,-3.711 -4.282,-3.992 -2.297,-6.414 -2.297,-6.414 0,0 -0.735,-0.734 -1.055,-1.738 -0.32,-1.008 -0.312,-2.012 -0.066,-2.793 0.84,0.125 1.992,0.523 2.73,1.14 0.754,0.606 1.164,1.219 1.164,1.219 0.907,-0.328 2.481,-0.547 4.258,1.176 3.059,2.976 3.789,5.406 4.734,7.402 0.586,1.289 1.536,1.582 2.383,1.239 0.852,-0.34 1.301,-1.348 0.649,-2.93 -0.727,-1.797 -1.719,-4.238 -1.328,-7.547 0.269,-2.246 1.421,-3.418 2.617,-3.801 0,0 0.027,-0.996 0.215,-1.777 0.171,-0.762 0.562,-1.492 1.113,-2.195 0.625,0.566 1.187,1.21 1.629,1.902 0.437,0.676 0.637,1.238 0.769,1.992 1.035,0.508 2.715,1.856 2.981,3.156 0.847,4.215 0.051,7.832 -0.363,9.637 4.757,-4.414 11.757,-10.129 15.519,-11.66 0.203,-0.086 0.422,-0.176 0.625,-0.266 0.652,-6.207 3.438,-12.136 5.637,-14.707 4.265,-5.027 7.715,-7.222 9.871,-8.836 1.562,-1.179 3.008,-1.687 2.109,-6.789 -0.722,-4.109 -2.871,-8.668 -5.508,-12.5 -3.332,-4.84 -13.996,-11.929 -13.996,-11.929 0,0 -7.617,3.105 -16.425,1.929 -3.25,-0.437 -3.946,-3.164 -3.946,-3.164 0,0 -1.14,-0.055 -2.039,-0.426 -0.996,-0.441 -1.699,-1.41 -1.699,-1.41 0,0 0.73,-0.906 1.902,-1.375 0.793,-0.32 1.907,-0.262 1.907,-0.262 0.332,-1.269 1.523,-2.617 3.273,-2.863 4.352,-0.625 7.266,-0.144 9.598,0.418 1.328,0.317 2.254,0.149 2.605,-0.918 0.344,-1.051 -0.625,-1.875 -1.492,-2.379 -3.34,-1.984 -5.691,-3.457 -7.078,-5.129 -1.379,-1.66 -2.082,-3.875 -1.391,-5.632 -0.332,-0.528 -0.816,-1.172 -1.07,-2.063 -0.227,-0.898 -0.168,-1.797 0.086,-2.762 0.652,-0.031 1.262,0.086 1.972,0.36 0.696,0.273 1.387,0.656 1.922,1.496 1.75,-0.586 4.055,-0.18 5.727,2.246 1.387,2.027 3.035,5.652 3.516,7.117 0.476,1.453 1.089,1.777 1.929,1.602 0.754,-0.157 1.352,-0.664 0.93,-2.996 -0.305,-1.672 -0.254,-5.215 0.027,-6.821 1.059,-5.75 4.172,-5.379 4.172,-5.379 0,0 0.242,-1.015 0.899,-1.828 0.664,-0.808 1.535,-1.363 2.316,-1.582 0.352,0.785 0.633,1.977 0.516,2.922 -0.11,0.977 -0.403,1.641 -0.403,1.641 0.766,0.597 1.797,1.797 1.301,4.226 -0.852,4.184 -2.5,6.106 -3.672,7.961 -0.781,1.223 -0.5,2.16 0.242,2.696 0.743,0.515 1.836,0.363 2.817,-1.028 1.109,-1.59 2.644,-3.75 5.64,-5.211 2.043,-0.976 3.645,-0.636 4.602,0.172 0,0 0.867,-0.523 1.609,-0.777 0.735,-0.266 1.575,-0.332 2.473,-0.266 -0.156,0.84 -0.391,1.668 -0.742,2.402 -0.332,0.754 -0.696,1.219 -1.27,1.719 0.149,1.145 -0.183,3.203 -1.047,4.219 -2.449,2.961 -6.882,4.973 -8.035,5.469 0,0 6.074,2.98 14.129,13.312 4.563,5.86 7.832,14.891 9.707,16.824 4.785,4.93 11.496,3.743 20.09,5.848 28.059,6.875 21.621,13.125 29.578,11.613 4.836,-0.918 4.055,-11.64 7.59,-18.703 2.82,-5.64 10.793,-3.98 11.836,-10.047 1.008,-5.828 -1.211,-16.004 -2.91,-19.89 -2.09,0.625 -8.418,2.84 -15.098,1.922 -3.43,-0.481 -3.586,-3.055 -3.586,-3.055 0,0 -1.16,-0.059 -2.051,-0.43 -0.996,-0.441 -1.675,-1.41 -1.675,-1.41 0,0 0.711,-0.894 1.882,-1.375 0.789,-0.32 1.907,-0.262 1.907,-0.262 0.332,-1.269 1.531,-2.617 3.281,-2.871 4.351,-0.605 7.246,-0.16 9.578,0.43 1.34,0.328 2.266,0.145 2.629,-0.93 0.34,-1.043 -0.649,-1.867 -1.496,-2.371 -3.36,-1.984 -5.703,-3.449 -7.078,-5.129 -1.387,-1.66 -2.09,-3.875 -1.41,-5.633 -0.332,-0.531 -0.821,-1.171 -1.051,-2.074 -0.246,-0.867 -0.188,-1.773 0.086,-2.742 0.633,-0.027 1.25,0.078 1.953,0.352 0.691,0.273 1.406,0.656 1.941,1.496 1.739,-0.586 4.035,-0.176 5.703,2.246 1.391,2.051 3.059,5.652 3.52,7.109 0.476,1.461 1.101,1.793 1.949,1.61 0.742,-0.164 1.352,-0.664 0.93,-2.989 -0.305,-1.668 -0.274,-5.222 0.027,-6.828 1.035,-5.738 4.172,-5.379 4.172,-5.379 0,0 0.227,-1.015 0.891,-1.828 0.652,-0.808 1.519,-1.344 2.324,-1.558 0.332,0.781 0.633,1.953 0.515,2.918 -0.117,0.957 -0.417,1.621 -0.417,1.621 0.757,0.597 1.792,1.816 1.296,4.226 -0.847,4.184 -2.48,6.106 -3.671,7.961 -0.77,1.223 -0.5,2.16 0.246,2.695 0.742,0.52 1.836,0.364 2.808,-1.023 1.125,-1.594 2.649,-3.762 5.649,-5.207 2.039,-0.984 3.64,-0.652 4.597,0.168 0,0 0.867,-0.527 1.614,-0.781 0.73,-0.254 1.57,-0.332 2.468,-0.254 -0.144,0.828 -0.39,1.648 -0.722,2.41" /><path
         id="path26"
         style="fill:#ffffff;fill-opacity:1;fill-rule:evenodd;stroke:none"
         d="m 345.203,331.008 c 8.156,-3.274 18.11,1.844 18.098,2.957 -12.403,-1.824 -17.012,1.711 -14.055,7.82 -8.887,-1.051 -8.465,-9.012 -4.043,-10.777" /><path
         id="path28"
         style="fill:#ffffff;fill-opacity:1;fill-rule:nonzero;stroke:none"
         d="m 611.594,485.883 c -0.278,3.742 -2.856,5.578 -15.864,3.047 -15.585,-2.215 -23.613,3.965 -19.042,11.008 -11.805,-0.684 -12.301,-16.614 0.507,-17.051 12.793,-0.43 20.434,5.027 34.399,2.996" /><path
         id="path30"
         style="fill:#ffffff;fill-opacity:1;fill-rule:nonzero;stroke:none"
         d="m 628.645,336.309 c -2.09,0.695 -8.567,2.765 -8.567,2.765 0,0 -10.969,-13.73 -30.969,-20.625 -16.843,-5.801 -24.39,-10.722 -28.218,-17.109 -3.246,-5.422 -4.914,-10.742 -5.161,-14.055 -0.41,-5.625 0.071,-9.305 0.735,-13.769 0.691,-4.676 5.945,-4.129 6.66,-0.828 0.52,2.39 2.063,5.093 4.473,5.371 2.414,0.269 4.675,-2.383 4.675,-2.383 0,0 -2.371,-9.836 -9.8,-19.465 -2.368,-3.055 -12.981,-14.238 -16.938,-16.238 -4.922,2.265 -11.465,4.675 -14.734,5.027 -2.625,0.293 -6.707,0.488 -7.969,-1.531 -1.769,0.117 -3.547,-0.754 -5.059,-1.985 1.438,-1.796 4.09,-2.703 4.09,-2.703 0.461,-3.195 3.457,-4.687 7.004,-5.019 3.692,-0.364 6.699,-0.207 8.274,-0.102 1.621,0.121 2.578,-0.797 2.761,-1.836 0.203,-1.14 -0.507,-2.418 -2.285,-2.672 -9.179,-1.308 -12.461,-5.949 -12.179,-10.898 -1.012,-1.152 -2.477,-3.477 -2.208,-5.883 1.465,-0.016 4.336,0.512 5.801,1.875 6.008,-0.816 10.278,5.492 11.992,8.789 0.852,1.664 1.68,2.473 3.008,1.887 1.125,-0.496 1.407,-1.555 0.703,-3.43 -0.839,-2.262 -1.796,-5.242 -1.836,-7.976 -0.046,-4.27 1.614,-6.485 3.957,-7.664 0,0 1.485,-3.653 3.301,-4.485 1.121,1.731 0.965,4.903 0.965,4.903 2.07,1.132 3.109,4.648 2.668,7.902 -0.273,2.051 -1.648,4.93 -2.754,7.281 -0.691,1.496 -0.398,2.699 0.559,3.149 1.187,0.574 2.293,-0.039 3.242,-2.219 0.586,-1.367 2.254,-4.461 3.465,-5.645 1.64,-1.59 5.273,-3.769 7.883,-2.215 0,0 2.351,-1.535 4.773,-1.25 -0.039,2.051 -0.812,3.473 -1.973,4.942 0.704,2.344 0.782,4.961 -2.5,8.066 -2.722,2.578 -5.957,4.949 -9.543,7.086 6.797,2.25 17.512,10.254 21.614,15.071 3.535,4.14 7.273,11.417 7.273,11.417 3.059,-0.695 3.906,-4.074 4.113,-6.289 0.176,-1.867 3.887,-2.726 4.778,0.594 0.886,3.289 1.492,6.594 1.386,10.871 -0.082,2.793 -0.414,8.828 -3.144,13.895 0.73,1.543 1.785,2.844 3.199,2.726 2.246,-0.16 3.75,-2.832 4.36,-4.14 1.851,-4.004 7.351,-2.649 7.207,1.433 -0.122,3.418 -0.137,6.067 -1.282,10.633 -0.539,2.133 -2.937,6.574 -4.968,8.246 1.199,7.75 6.265,7.989 16.472,16.16 3.797,3.028 9.16,7.422 13.02,12.469 1.133,1.488 2.969,4.414 2.691,6.672 -0.183,1.594 -2.754,2.434 -5.015,3.184" /><path
         id="path32"
         style="fill:#ffffff;fill-opacity:1;fill-rule:nonzero;stroke:none"
         d="m 612.227,512.758 c 0,0 5.617,-9.09 9.902,-6.317 3.059,1.973 1.543,5.477 -0.606,7.891 -2.96,3.328 -6.242,1.113 -9.296,-1.574 z m 78.117,-160.59 c -1.789,-9.121 -8.774,-15.098 -18.266,-18.973 0.473,-17.289 -10.113,-25.715 -10.301,-31.75 -0.144,-4.441 3.899,-5.769 8.368,-11.836 4.308,-5.839 5.918,-15.363 4.691,-22.89 -0.918,-5.574 -2.16,-8.485 -4.316,-12.442 -2.168,-3.972 -6.934,-2.363 -6.665,0.696 0.774,8.504 -5.269,5.547 -5.269,5.547 0,0 0.223,-8.997 -5.957,-21.086 -3.723,-7.266 -14.16,-16.836 -14.16,-16.836 0,0 8.574,-1.336 11.133,-2.45 4.148,-1.82 5.039,-5.089 5.066,-7.531 1.555,-1.043 2.812,-2.383 3.469,-4.336 -1.836,-0.722 -5.039,-0.027 -5.039,-0.027 0,0 -3.032,-2.746 -8.457,0.535 -1.973,1.191 -3.586,3.035 -4.575,4.141 -1.394,1.562 -2.73,1.687 -3.687,0.84 -0.774,-0.684 -0.93,-2 0.242,-3.29 1.738,-1.914 4.016,-4.906 4.734,-6.21 1.118,-2.071 1.711,-6.797 0.071,-8.477 0,0 1.219,-3.43 0.652,-5.391 -1.973,0.235 -4.707,3.563 -4.707,3.563 -2.586,0.422 -5.105,2.988 -5.808,5.957 -0.809,3.398 -0.364,6.223 -0.313,8.613 0.051,2.207 -0.52,3.25 -1.934,3.36 -1.671,0.128 -2.296,-0.977 -2.48,-2.637 -0.481,-4.375 -3.543,-11.426 -9.523,-12.422 -0.985,-1.719 -3.204,-2.957 -4.61,-3.379 -0.965,2.219 -0.262,4.863 0.363,6.27 -1.738,4.648 0.379,9.336 8.399,14.035 1.152,0.664 1.687,1.98 1.074,3.062 -0.535,0.918 -1.57,1.172 -2.969,0.707 -1.511,-0.488 -4.199,-1.23 -7.832,-1.984 -3.476,-0.711 -6.777,-0.195 -8.175,2.726 0,0 -2.801,0.079 -4.708,1.375 1.086,1.622 2.5,2.981 4.243,3.387 0.601,2.309 4.175,3.969 6.824,4.262 7.285,0.789 16.594,-0.859 16.594,-0.859 0,0 4.793,4.667 9.336,12.039 5.847,9.484 5.007,19.89 5.007,19.89 0,0 -1.179,1.703 -3.164,1.809 -2.234,0.129 -3.84,-2.117 -4.843,-3.145 -1.122,-1.152 -4.317,-1.277 -4.305,2.16 0,2.059 0.308,5.223 1.668,9.266 0.89,2.664 2.273,5.012 4.48,8.195 -1.14,1.543 -3.164,2.918 -4.461,2.547 -1.828,-0.539 -2.832,-1.933 -3.488,-3.769 -0.894,-2.481 -4.93,-2.91 -5.762,0.761 -0.75,3.34 -0.972,6.457 -0.488,10.821 0.844,7.531 2.024,15.234 10.481,26.777 4.074,5.559 13.671,16.945 13.859,23.828 0.191,6.535 -21.887,7.293 -38.293,18.164 -13.508,8.949 -16.648,23.18 -16.648,23.18 0,0 -4.836,-6.309 -15.383,-12.637 -6.953,-4.179 -20.164,-7.316 -20.164,-7.316 2.34,-3.031 4.121,-6.625 5.164,-9.692 1.609,-4.714 0.437,-7.304 -1.297,-9.003 0.32,-1.864 -0.293,-3.887 -1.25,-5.696 -1.828,1.176 -2.988,3.789 -2.988,3.789 -3.039,-0.093 -4.622,1.703 -5.43,5.364 -0.473,2.082 -0.774,5.515 -0.734,7.003 0.058,2.325 -0.743,3.36 -1.895,3.36 -0.996,0 -1.785,-0.84 -1.887,-2.363 -0.164,-2.579 -0.633,-6.25 -1.082,-7.696 -0.715,-2.226 -2.734,-5.734 -5.097,-5.734 0,0 -1.512,-3.524 -3.348,-4.492 -1.184,1.593 -0.688,5.871 -0.688,5.871 -1.531,1.211 -2.378,3.875 -0.261,8.633 1.562,3.562 2.734,4.492 4.355,6.238 1.485,1.601 2.129,2.68 1.082,3.746 -0.816,0.848 -1.621,0.574 -2.976,-0.332 -3.094,-2.098 -10.75,-5.582 -15.633,-1.977 -1.926,-0.492 -3.82,0.426 -5.102,1.145 0.93,2.246 2.942,3.82 4.77,4.113 2.09,3.125 6.629,5.008 15.918,3.692 1.25,-0.176 2.691,-0.02 3.086,1.25 0.347,1.191 -0.024,2.293 -1.614,3.027 -1.433,0.664 -3.878,1.875 -6.945,3.973 -2.937,2.003 -4.851,4.738 -3.719,7.785 0,0 -1.882,2.058 -2.273,4.336 1.914,0.34 3.887,0.254 5.367,-0.703 2.094,1.171 5.695,0.007 8.067,-2.122 2.453,-2.195 6.054,-6.57 9.296,-10.937 0,0 12.161,1.582 21.758,12.168 5.903,6.516 7.113,17.09 7.426,26.398 0.059,1.543 -0.578,3.028 -1.848,3.594 -2.058,0.906 -4.328,-0.656 -5.625,-1.281 -1.465,-0.703 -4.519,0.273 -3.32,3.488 1.199,3.223 2.117,4.91 4.91,8.125 1.567,1.785 5.11,5.43 9.602,7.91 -3.836,2.871 -8.25,6.856 -12.285,10.801 -3.457,3.367 -9.207,12.195 -12.176,19.082 -0.656,-2.207 -1.313,-5.226 -2.113,-7.199 -1.715,-4.199 -3.844,-5.039 -6.278,-5.242 -0.945,-1.602 -2.715,-2.774 -4.617,-3.555 -0.648,2.078 0.34,5.176 0.34,5.176 -2.395,1.863 -1.903,4.785 -0.653,7.801 1.114,2.656 2.606,4.289 3.653,5.343 1.726,1.739 1.89,3.008 0.926,3.836 -0.926,0.801 -2.098,0.578 -3.133,-0.691 -1.645,-2.012 -4.524,-4.395 -5.781,-5.195 -1.985,-1.27 -6.543,-1.934 -8.34,-0.411 0,0 -3.157,-1.386 -5.168,-0.968 0.097,1.984 2.968,4.629 2.968,4.629 0.235,2.609 0.743,3.8 5.379,6.222 2.114,1.113 5.664,1.883 8.047,1.817 2.512,-0.079 3.574,1.035 3.586,2.148 0,1.328 -1.094,2.148 -2.937,2.07 -4.414,-0.207 -11.731,2.246 -13.149,8.145 -1.797,0.859 -2.652,2.773 -3.164,4.148 2.153,1.133 4.836,0.606 6.289,0.09 4.504,2.051 9.328,0.254 14.563,-7.402 1.367,-1.992 4.883,-0.91 3.64,2.156 -0.586,1.477 -1.519,4.102 -2.527,7.676 -0.969,3.418 -0.664,6.75 2.148,8.351 0,0 -0.109,2.793 1.055,4.774 1.668,-0.965 3.137,-2.285 3.66,-3.985 2.356,-0.429 4.477,-3.945 5.102,-6.687 0.633,-2.832 1.363,-7.969 0.152,-14.348 1.77,-6.211 5.918,-11.465 8.957,-14.804 5.481,-6.036 16.543,-12.969 24.258,-17.442 0.867,0.957 1.797,1.914 2.805,2.883 0.828,0.789 0.64,2.137 0.105,3.066 -1.113,1.954 -3.879,2.012 -5.293,2.274 -1.593,0.285 -3.426,2.773 -0.636,4.777 2.785,1.992 5.976,3.086 10.136,4.031 2.793,0.645 8.125,1.407 14.199,-0.195 0,0 3.442,3.996 1.758,5.293 -6.25,4.824 -18.23,1.828 -18.23,1.828 -4.707,6.407 -0.559,8.106 6.062,8.328 5.442,0.207 11.489,-0.703 17.856,-3.007 4.234,3.39 2.937,13.378 -2.934,16.144 -12.906,6.102 -22.847,-0.137 -22.847,-0.137 -2.883,0.438 -5.54,1.856 -6.915,4.961 -1.574,3.535 -0.519,7.422 -0.519,7.422 -2.969,2.11 -2.883,8.731 16.543,7.352 0,0 -2.012,5.469 -0.508,9.863 1.984,5.832 23.106,2.746 27.957,3.828 1.223,0.274 3.586,1.106 4.785,1.457 3.02,0.906 4.035,-2.023 3.059,-3.73 -1.629,-2.864 -2.18,-6.524 -2.18,-6.524 0,0 7.903,-2.062 14.785,-10.488 3.703,-4.543 5.102,-11.738 5.786,-15.09 0.691,-3.367 -2.754,-3.652 -4.004,-2.656 -1.125,0.91 -2.981,2.941 -5.2,2.512 -1.304,-0.246 -2.793,-2.52 -3.242,-3.918 7.668,-4.09 10.473,-13.379 11.098,-17.254 0.664,-4.192 0.484,-7.551 0.047,-10.957 -0.43,-3.379 -3.789,-2.551 -4.657,-1.184 -0.773,1.211 -1.867,3.742 -4.085,4.055 -2.032,0.281 -3.415,-1.379 -4.305,-3.281 3.008,-4.551 4.082,-9.934 4.402,-12.579 0.52,-4.25 0.238,-7.589 -0.332,-10.957 -0.555,-3.378 -3.887,-2.421 -4.695,-1.035 -0.735,1.25 -1.731,3.809 -3.945,4.199 -2.11,0.379 -3.887,-2.089 -4.817,-4.003 4.668,-4.719 6.301,-11.692 6.801,-14.825 0.672,-4.211 0.496,-7.558 0.066,-10.957 -0.437,-3.398 -3.906,-3.164 -4.668,-1.203 -0.656,1.68 -1.648,3.946 -3.855,4.27 -1.274,0.195 -3.125,-1.106 -3.899,-2.024 -0.781,-4.675 0.215,-8.906 1.043,-13.066 1.426,-7.117 5.215,-13.965 14.204,-20.488 10,-7.274 22.378,-19.141 26.453,-33.539 8.586,3.808 16.406,12.003 6.406,25.738 -9.695,13.289 -17.316,17.519 -21.399,33.086 -2.378,9.07 -0.82,18.582 6.938,28.523 -1.074,1.594 -1.563,3.664 -1.723,5.949 -0.254,3.993 0.168,9.629 3.965,15.977 3.418,5.75 9.621,13.34 18.84,17.5 2.313,-1.359 2.488,-5.762 1.98,-6.738 -2.781,-5.364 -13.425,-13.039 -13.562,-16.203 -0.078,-1.786 4.18,-4.442 5.715,-3.934 2.887,0.965 6.172,8.77 7.371,10.359 0.976,1.301 4.59,1.289 4.316,-2.129 -0.285,-3.418 -0.82,-6.726 -2.343,-10.71 -1.512,-3.918 -6.59,-11.661 -16.805,-13.145 -1.106,-0.156 -2.102,-0.137 -3,0.008 -6.074,-8.321 -5.149,-16.778 -4.285,-21.629 1.785,-10.078 8.551,-15.723 17.383,-27.07 7.949,-10.215 12.031,-15.989 9.824,-27.184" /><path
         id="path34"
         style="fill:#ffffff;fill-opacity:1;fill-rule:nonzero;stroke:none"
         d="m 533.879,576.91 c -3.027,4.656 -7.055,9.238 -10.395,14.082 -3.687,5.36 -3.062,12.246 3.45,13.504 2.004,0.383 4.699,-0.457 6.621,-2.43 0.175,-0.175 0.449,-0.175 0.656,0 1.934,1.973 4.629,2.813 6.617,2.43 6.527,-1.258 7.152,-8.144 3.449,-13.504 -3.332,-4.844 -7.351,-9.426 -10.398,-14.082 v 0" /><path
         id="path36"
         style="fill:#ffffff;fill-opacity:1;fill-rule:nonzero;stroke:none"
         d="m 533.887,129.063 c -3.035,4.667 -7.063,9.238 -10.403,14.074 -3.687,5.379 -3.074,12.254 3.45,13.504 1.992,0.39 4.699,-0.45 6.621,-2.422 0.175,-0.164 0.449,-0.164 0.656,0 1.934,1.972 4.629,2.812 6.617,2.422 6.527,-1.25 7.152,-8.125 3.449,-13.504 -3.332,-4.836 -7.351,-9.407 -10.39,-14.074 v 0" /><path
         id="path38"
         style="fill:#ffffff;fill-opacity:1;fill-rule:nonzero;stroke:none"
         d="m 581.641,151.105 c -3.036,4.657 -7.063,9.239 -10.403,14.083 -3.687,5.371 -3.062,12.246 3.45,13.496 2,0.39 4.699,-0.442 6.628,-2.422 0.168,-0.168 0.454,-0.168 0.649,0 1.93,1.98 4.629,2.812 6.629,2.422 6.511,-1.25 7.136,-8.125 3.449,-13.496 -3.344,-4.844 -7.363,-9.426 -10.402,-14.083 v 0" /><path
         id="path40"
         style="fill:#ffffff;fill-opacity:1;fill-rule:nonzero;stroke:none"
         d="m 533.887,402.652 c -3.035,4.668 -7.063,9.246 -10.403,14.09 -3.699,5.363 -3.062,12.238 3.45,13.508 1.992,0.379 4.687,-0.461 6.621,-2.434 0.175,-0.175 0.461,-0.175 0.656,0 1.934,1.973 4.629,2.813 6.617,2.434 6.527,-1.27 7.152,-8.145 3.449,-13.508 -3.339,-4.844 -7.351,-9.422 -10.39,-14.09 v 0" /><path
         id="path42"
         style="fill:#ffffff;fill-opacity:1;fill-rule:nonzero;stroke:none"
         d="m 581.641,551.586 c -3.036,4.668 -7.063,9.25 -10.403,14.082 -3.687,5.383 -3.062,12.246 3.45,13.508 2,0.379 4.699,-0.449 6.621,-2.422 0.175,-0.176 0.461,-0.176 0.656,0 1.93,1.973 4.629,2.801 6.629,2.422 6.511,-1.262 7.136,-8.125 3.437,-13.508 -3.332,-4.832 -7.351,-9.414 -10.39,-14.082 v 0" /><path
         id="path44"
         style="fill:#ffffff;fill-opacity:1;fill-rule:nonzero;stroke:none"
         d="m 585,325.098 c -3.035,4.66 -7.062,9.238 -10.398,14.082 -3.704,5.363 -3.071,12.238 3.445,13.496 1.992,0.39 4.695,-0.449 6.621,-2.422 0.176,-0.176 0.449,-0.176 0.652,0 1.938,1.973 4.629,2.812 6.621,2.422 6.528,-1.258 7.153,-8.133 3.45,-13.496 -3.328,-4.844 -7.356,-9.422 -10.391,-14.082 v 0" /><path
         id="path46"
         style="fill:#ffffff;fill-opacity:1;fill-rule:nonzero;stroke:none"
         d="m 494.043,607.945 c 0,0 2.559,-0.254 3.879,-0.742 v -478.25 c -2.656,-0.855 -3.93,-0.855 -3.93,-0.855 0,0 -1.172,0.066 -3.902,0.855 v 0 478.25 c 1.25,0.457 3.953,0.742 3.953,0.742" /><path
         id="path48"
         style="fill:#ffffff;fill-opacity:1;fill-rule:nonzero;stroke:none"
         d="m 274.141,264.27 c -0.496,1.57 -1.075,3.113 -1.575,4.675 l -11.753,-3.718 1.226,-3.887 c 1.098,-3.469 4.856,-4.184 7.895,-3.215 2.879,0.906 5.281,2.766 4.207,6.145 z m -16.614,-4.993 -1.406,4.453 -11.601,-3.671 c -2.293,-0.735 -2.254,-1.719 -1.239,-4.942 1.289,-4.043 4.414,-6.777 9.348,-5.207 4.031,1.274 6.211,5.238 4.898,9.367 z m -17.664,-9.05 c -1.367,4.285 -2.527,8.543 -3.894,12.839 l -4.36,13.157 4.036,1.277 2.878,-7.078 30.344,9.617 -2.734,7.766 4.187,1.328 c 3.176,-7.988 6.282,-16.086 8.879,-24.262 2.821,-8.914 0.781,-16.465 -5.383,-18.418 -3.945,-1.25 -8.003,0.996 -10.586,3.996 0.227,-5.281 -1.675,-10.703 -7.097,-12.422 -8.235,-2.605 -14.07,5.266 -16.27,12.2" /><path
         id="path50"
         style="fill:#ffffff;fill-opacity:1;fill-rule:nonzero;stroke:none"
         d="m 294.844,215.281 -1.121,2.141 -14.121,-7.43 0.925,-1.769 c 2.344,-4.442 6.985,-4.735 10.723,-2.762 3.281,1.719 5.977,5.293 3.594,9.82 z m -25.528,-40.164 -2.402,7.344 c -2.156,6.301 8.047,19.309 11.024,24.394 l -0.926,1.766 -11.824,-6.226 1.843,-4.805 -3.816,-2.004 -4.985,10 -6.074,10.988 3.813,2.012 3.765,-5.852 28.301,14.914 -4.058,7.157 3.894,2.05 c 2.285,-3.789 5.098,-8.574 6.856,-11.367 0.644,-1.023 3.933,-6.535 5.031,-8.601 6.695,-12.727 4.472,-18.684 -1.86,-22.024 -5.64,-2.968 -10.457,-1.98 -14.312,2.942 -0.891,-1.653 -10.891,-16.504 -10.832,-17.746 0.051,-1.934 0.129,-1.895 0.832,-4.168 l -4.27,-0.774" /><path
         id="path52"
         style="fill:#ffffff;fill-opacity:1;fill-rule:nonzero;stroke:none"
         d="m 318.113,170.137 -12.976,-3.914 5.832,-7.325 z m -13.941,-33.582 -8.606,10.523 3.301,2.641 4.129,-4.356 5.293,8.867 -8.465,10.633 -9.929,-3.039 4.175,-6.07 -3.308,-2.637 -5.801,7.559 -4.941,5.801 3.234,2.578 2.851,-2.602 37.86,10.883 c 2.121,-1.418 4.805,-2.148 6.836,-2.637 l 1.133,-1.426 -21.387,-37.406 2.168,-3.687 -3.301,-2.637 -5.242,7.012" /><path
         id="path54"
         style="fill:#ffffff;fill-opacity:1;fill-rule:nonzero;stroke:none"
         d="m 375.41,120.762 -14.055,-16.809 c -6.46,-7.7538 -15.425,-7.6717 -24.8,0.16 -8.762,7.325 -11.653,17.379 -6.282,23.797 l 15.04,18.008 -5.176,5 2.707,3.242 9.453,-8.125 10.406,-8.476 -2.703,-3.243 -5.715,4.102 -13.941,-16.68 c -5.141,-6.152 -2.063,-11.648 0.73,-13.984 2.852,-2.383 10.457,-5.711 15.547,0.383 l 13.938,16.679 -4.844,4.727 2.703,3.238 7.062,-6.004 7.821,-6.425 -2.703,-3.243 -5.188,3.653" /><path
         id="path56"
         style="fill:#ffffff;fill-opacity:1;fill-rule:nonzero;stroke:none"
         d="m 430.496,92.5977 -15.203,-34.2071 -6.641,2.9492 -10.222,36.9219 -9.883,-22.2265 5.641,-3.0743 -1.747,-3.9453 -8.125,3.8946 -9.289,3.8398 1.719,3.8672 6.067,-2.1289 12.609,28.3787 c -0.5,1.641 -2.375,2.75 -6.25,4.473 l 1.785,4.023 15.664,-6.965 9.402,-33.4371 8.938,20.0977 -5.652,3.0781 1.714,3.8553 8.207,-3.7303 9.129,-3.9648 -1.718,-3.8672 -6.145,2.168" /><path
         id="path58"
         style="fill:#ffffff;fill-opacity:1;fill-rule:nonzero;stroke:none"
         d="m 459.285,47.5195 c -3.758,0.586 -6.347,1.4258 -11.031,3.3711 l -0.371,-1.25 -4.367,0.6836 0.886,2.9102 2.043,9.7265 4.192,-0.6562 c -0.676,-5.4805 2.566,-9.3828 7.105,-10.0977 4.621,-0.7148 7.063,1.4375 7.563,4.6797 0.593,3.8281 -5.52,7.3125 -10.403,12 -3.742,3.5469 -6.75,7.8516 -5.964,12.8828 1.128,7.2461 7.593,10.5157 17.007,9.0508 2.563,-0.3984 7.707,-1.7265 9.621,-2.3711 l 0.879,1.6992 3.938,-0.6171 -1.992,-12.7735 -4.192,0.6445 c 0.156,4.9532 -2.082,8.0079 -6.621,8.711 -4.707,0.7344 -6.301,-2.7735 -6.594,-4.6485 -0.574,-3.6601 4.172,-6.9335 8.723,-10.957 4.297,-3.8945 8.34,-8.3594 7.473,-13.8945 -1.203,-7.7539 -8.301,-10.586 -17.895,-9.0938" /><path
         id="path60"
         style="fill:#ffffff;fill-opacity:1;fill-rule:nonzero;stroke:none"
         d="m 518.652,46.0938 c -13.964,-1.2969 -25.136,6.582 -26.339,19.4648 -1.036,11.0742 6.582,22.7031 21.671,24.1094 6.907,0.6445 8.125,0.5859 12.676,0.3125 l 0.11,1.6601 4.136,0.3828 0.356,-3.8671 1.211,-10.1094 -4.145,-0.3789 c -1.109,6.2968 -6.558,7.8672 -12.683,7.3047 -6.465,-0.6055 -11.973,-7.7852 -11.036,-17.8321 0.887,-9.6211 8.34,-16.7187 14.981,-16.1054 6.555,0.6171 9.851,2.5703 9.844,2.6484 0.402,1.25 0.468,7.0586 0.461,8.1016 l 4.136,0.3828 1.047,-11.25 c -6.113,-2.4688 -7.969,-4.0313 -16.426,-4.8242" /><path
         id="path62"
         style="fill:#ffffff;fill-opacity:1;fill-rule:nonzero;stroke:none"
         d="m 600,70.4219 -12.102,-5.1875 -1.609,3.9062 6.25,3.2422 -5.234,12.668 -18.653,-7.7149 5.243,-12.6679 6.632,2.0898 1.614,-3.9062 -11.75,-4.668 -11.856,-5.0977 -1.609,3.9063 6.172,3.2031 -12.27,29.6485 -6.59,-2.168 -1.621,3.9062 11.992,4.7774 11.614,4.9886 1.621,-3.9066 -6.203,-3.125 5.136,-12.4297 18.645,7.7031 -5.141,12.4412 -6.676,-2.2068 -1.625,3.9058 11.672,4.637 12.024,5.16 1.609,-3.91 -6.277,-3.152 12.254,-29.6486 6.711,2.1211 1.621,-3.9062 L 600,70.4219" /><path
         id="path64"
         style="fill:#ffffff;fill-opacity:1;fill-rule:nonzero;stroke:none"
         d="m 654.199,155.441 13.289,-38.566 -4.91,-4.246 -17.605,8.73 6.336,-18.468 -5.313,-4.5902 -36.808,18.2422 -3.551,-2.383 -2.766,3.203 7.258,6.035 7.547,6.758 2.762,-3.203 -2.208,-2.469 24.79,-12.793 -5.032,13.106 -12.226,6.07 -2.832,-1.754 -2.762,3.192 6.543,5.422 8.727,7.769 2.765,-3.199 -3.723,-3.781 24.719,-12.84 -9.656,25.742 -4.465,-3.176 -2.765,3.196 6.796,5.64 5.149,4.906 2.883,-3.332 -2.942,-3.211" /><path
         id="path66"
         style="fill:#ffffff;fill-opacity:1;fill-rule:nonzero;stroke:none"
         d="m 703.23,160.488 -3.472,-4.754 -7.844,-11.32 -3.445,2.453 3.875,6.485 -26.223,18.64 -4.566,-5.246 -3.45,2.445 7.786,10.508 5.027,7.371 5.625,7.903 -1.648,1.707 2.46,3.457 2.735,-1.953 8.523,-5.735 -2.414,-3.386 -5.761,2.617 -7.325,-10.313 10.61,-7.539 5.465,7.688 -3.504,3.242 2.402,3.387 12.019,-8.543 -2.402,-3.391 -4.433,2.41 -5.465,-7.691 9.91,-7.051 c 0.555,-0.402 1.125,-0.805 1.238,-0.781 0.578,0.664 1.223,1.269 2.426,2.957 1.707,2.402 4.141,5.664 4.336,5.949 0.703,0.992 1.902,2.684 1.812,2.851 -0.105,0.293 -3.906,3.739 -4.695,4.403 l 2.461,3.457 9.133,-6.492 -11.196,-15.735" /><path
         id="path68"
         style="fill:#ffffff;fill-opacity:1;fill-rule:nonzero;stroke:none"
         d="m 730.117,205.715 -5.554,-11.641 -3.793,1.864 2.531,6.484 -28.781,14.199 -3.524,-5.984 -3.789,1.875 5.859,11.492 5.442,11.418 3.789,-1.867 -2.602,-6.446 28.774,-14.207 3.609,5.946 3.789,-1.864 -5.75,-11.269" /><path
         id="path70"
         style="fill:#ffffff;fill-opacity:1;fill-rule:nonzero;stroke:none"
         d="m 741.77,278.684 c 1.152,-0.364 2.847,-0.989 4.832,-1.614 l 1.472,-0.457 c 2.856,-0.715 5.571,-1.3 7.871,-0.566 -1.582,-5.039 -1.367,-4.649 -2.09,-8.969 -0.71,-4.586 -0.796,-6.285 -2.476,-11.648 -5.402,-17.188 -17.805,-21.004 -28.676,-17.598 -9.707,3.047 -18.426,13.859 -13.445,29.727 1.394,4.464 3.664,9.648 5.117,12.55 l -1.66,1.063 1.172,3.723 2.715,-0.864 10.8,-3.023 -1.25,-3.965 c -6.179,1.031 -9.875,-3.254 -12.004,-10.02 -1.714,-5.46 3.047,-14.484 12.27,-17.375 9.871,-3.105 18.633,1.77 20.477,7.637 0.957,3.059 1.085,5.195 0.808,7.461 l -9.305,2.922 -2.707,-6.594 -4.019,1.262 4.098,12.508 3.261,10.957 4.035,-1.27 -1.296,-5.847" /><path
         id="path72"
         style="fill:#ffffff;fill-opacity:1;fill-rule:nonzero;stroke:none"
         d="m 264.656,362.582 c 0.332,-14.094 -8.301,-24.738 -21.226,-25.043 -11.125,-0.262 -22.2,8.164 -22.563,23.383 -0.164,6.953 -0.015,8.176 0.559,12.707 l -1.641,0.223 -0.097,4.171 3.875,0.098 10.167,0.508 0.098,-4.18 c -6.367,-0.676 -8.308,-6.027 -8.164,-12.199 0.156,-6.516 6.941,-12.531 17.031,-12.301 9.66,0.239 17.254,7.215 17.102,13.903 -0.156,6.613 -1.875,10.05 -1.965,10.05 -1.223,0.489 -7.012,0.957 -8.047,1.016 l -0.097,4.18 11.289,0.273 c 2.05,-6.308 3.476,-8.273 3.679,-16.789" /><path
         id="path74"
         style="fill:#ffffff;fill-opacity:1;fill-rule:nonzero;stroke:none"
         d="m 234.082,412.953 11.856,-6.59 1.179,9.317 z m 33.801,13.496 -1.555,-13.562 -4.187,0.535 0.242,6.016 -10.039,-2.403 -1.731,-13.543 9.106,-5.019 1.441,7.273 4.192,-0.535 -1.375,-9.465 -0.715,-7.625 -4.102,0.527 -0.117,3.868 -34.199,19.597 c -0.457,2.512 -1.797,4.961 -2.871,6.77 l 0.222,1.805 41.731,10.832 1.133,4.148 4.187,-0.535 -1.363,-8.684" /><path
         id="path76"
         style="fill:#ffffff;fill-opacity:1;fill-rule:nonzero;stroke:none"
         d="m 242.195,476.031 -0.691,-2.336 15.281,-4.59 0.57,1.915 c 1.454,4.835 -1.64,8.312 -5.695,9.523 -3.555,1.062 -7.988,0.398 -9.465,-4.512 z m 46.41,10.848 -3.441,-6.961 c -2.898,-6.027 -19.305,-8.184 -25,-9.738 l -0.574,-1.914 12.805,-3.848 2.058,4.738 4.133,-1.242 -3.481,-10.664 -3.375,-12.156 -4.132,1.238 1.418,6.848 -30.649,9.199 -2.129,-7.988 -4.207,1.269 c 1.028,4.317 2.371,9.727 3.074,12.969 0.278,1.191 1.797,7.449 2.473,9.695 4.152,13.828 9.922,16.543 16.777,14.485 6.114,-1.836 8.848,-5.93 8.145,-12.161 1.785,0.547 19.355,4.172 20.176,5.11 1.328,1.414 1.25,1.433 2.336,3.562 l 3.593,-2.441" /><path
         id="path78"
         style="fill:#ffffff;fill-opacity:1;fill-rule:nonzero;stroke:none"
         d="m 264.109,533.629 c -3.55,-6.973 2.461,-13.945 10.149,-17.871 7.605,-3.879 17.019,-4.766 20.578,2.207 3.523,6.894 -3.012,14.031 -10.383,17.793 -7.297,3.719 -16.824,4.765 -20.344,-2.129 z m 34.875,-17.785 c -7.39,-14.481 -20.769,-16.063 -30.3,-11.199 -9.524,4.851 -16.118,16.609 -8.723,31.101 7.312,14.336 20.613,15.949 30.144,11.086 9.297,-4.738 16.196,-16.652 8.879,-30.988" /><path
         id="path80"
         style="fill:#ffffff;fill-opacity:1;fill-rule:nonzero;stroke:none"
         d="m 336.211,574.273 -11.082,-14.511 -3.652,-4.66 -7.883,-10.606 -3.36,2.559 3.743,5.898 -25.508,19.465 -4.629,-5.215 -3.36,2.567 8.094,10.332 7.461,10.058 3.36,-2.558 -3.809,-5.848 25.852,-19.727 c 0.425,0.555 5.82,7.918 6.089,8.262 0.735,0.965 1.797,2.781 1.703,3.086 -0.109,0.293 -3.898,5.703 -4.496,6.484 l 2.637,3.457 8.84,-9.043" /><path
         id="path82"
         style="fill:#ffffff;fill-opacity:1;fill-rule:nonzero;stroke:none"
         d="m 332.402,623.324 c -5.832,-5.215 -2.734,-13.894 3.02,-20.32 5.683,-6.367 14.141,-10.606 19.976,-5.391 5.762,5.157 2.258,14.168 -3.257,20.34 -5.461,6.106 -13.965,10.527 -19.739,5.371 z m 26.106,-29.187 c -12.129,-10.832 -25.18,-7.461 -32.309,0.515 -7.129,7.969 -9.019,21.309 3.098,32.149 11.992,10.722 24.988,7.414 32.109,-0.567 6.961,-7.781 9.09,-21.375 -2.898,-32.097" /><path
         id="path84"
         style="fill:#ffffff;fill-opacity:1;fill-rule:nonzero;stroke:none"
         d="m 374.922,627.777 -5.02,8.352 18.789,11.289 5.02,-8.359 -18.789,-11.282" /><path
         id="path86"
         style="fill:#ffffff;fill-opacity:1;fill-rule:nonzero;stroke:none"
         d="m 447.473,683.277 -2.082,-40.754 -6.172,-2.117 -13.125,14.649 -1.016,-19.504 -6.66,-2.293 -27.441,30.613 -4.2,-0.898 -1.379,3.996 9.028,2.918 9.566,3.468 1.367,-3.996 -2.988,-1.484 18.281,-21.074 0.239,14.035 -9.114,10.176 -3.293,-0.578 -1.375,3.996 8.118,2.605 11.043,3.977 1.375,-3.996 -4.872,-2.137 18.196,-21.106 0.664,27.5 -5.356,-1.296 -1.375,4.003 8.45,2.715 6.628,2.645 1.438,-4.16 -3.945,-1.903" /><path
         id="path88"
         style="fill:#ffffff;fill-opacity:1;fill-rule:nonzero;stroke:none"
         d="m 480.203,648.785 -12.918,-1.066 -0.293,4.211 6.903,1.093 -2.235,32.012 -6.972,0.028 -0.293,4.218 12.941,0.723 12.644,1.055 0.293,-4.207 -6.906,-1.008 2.238,-32.012 6.985,-0.117 0.293,-4.219 -12.68,-0.711" /><path
         id="path90"
         style="fill:#ffffff;fill-opacity:1;fill-rule:nonzero;stroke:none"
         d="m 542.273,643.754 -18.027,2.922 -5.816,1.035 -13.078,1.934 0.671,4.179 6.973,-0.519 5.129,31.672 -6.785,1.621 0.672,4.168 12.937,-2.266 12.395,-1.824 -0.672,-4.18 -6.953,0.606 L 524.512,651 c 0.691,-0.105 9.726,-1.395 10.156,-1.465 1.199,-0.195 3.312,-0.273 3.516,-0.047 0.214,0.223 3.195,6.121 3.601,7.02 l 4.301,-0.692 -3.813,-12.062" /><path
         id="path92"
         style="fill:#ffffff;fill-opacity:1;fill-rule:nonzero;stroke:none"
         d="m 592.527,622.73 -11.992,5.567 1.836,3.808 6.606,-2.5 5.945,12.352 -18.262,8.781 -5.937,-12.355 6.007,-3.563 -1.835,-3.808 -11.372,5.664 -11.746,5.457 1.836,3.808 6.524,-2.468 13.906,28.914 -6.047,3.488 1.84,3.809 11.602,-5.774 11.511,-5.351 -1.836,-3.809 -6.496,2.551 -5.828,-12.129 18.262,-8.781 5.832,12.129 -6.125,3.515 1.828,3.809 11.285,-5.614 11.914,-5.539 -1.836,-3.808 -6.558,2.59 -13.911,-28.926 6.086,-3.594 -1.828,-3.808 -11.211,5.585" /><path
         id="path94"
         style="fill:#ffffff;fill-opacity:1;fill-rule:nonzero;stroke:none"
         d="m 624.719,599.137 -4.453,3.894 -10.657,8.809 2.735,3.223 6.164,-4.434 20.808,24.531 -4.863,5.031 2.735,3.223 9.855,-8.691 6.941,-5.664 7.434,-6.301 1.836,1.496 3.25,-2.754 -2.18,-2.57 -6.441,-7.996 -3.188,2.703 3.098,5.519 -9.688,8.211 -8.425,-9.929 7.222,-6.133 3.536,3.222 3.183,-2.695 -9.539,-11.25 -3.184,2.703 2.774,4.211 -7.227,6.133 -7.871,-9.277 c -0.449,-0.528 -0.886,-1.055 -0.879,-1.172 0.606,-0.625 1.153,-1.328 2.743,-2.676 2.257,-1.914 5.324,-4.621 5.585,-4.844 0.93,-0.793 2.524,-2.14 2.7,-2.062 0.3,0.078 4.058,3.566 4.793,4.308 l 3.254,-2.765 -7.258,-8.543 -14.793,12.539" /><path
         id="path96"
         style="fill:#ffffff;fill-opacity:1;fill-rule:nonzero;stroke:none"
         d="m 670.242,549.742 -11.426,14.246 -3.621,4.668 -8.41,10.207 3.305,2.645 4.82,-5.047 25.024,20.078 -3.95,5.75 3.301,2.649 8.078,-10.352 7.969,-9.668 -3.289,-2.648 -4.77,5.109 -25.359,-20.352 c 0.441,-0.539 6.277,-7.558 6.555,-7.89 0.761,-0.957 2.273,-2.422 2.578,-2.395 0.308,0.031 6.473,2.403 7.383,2.793 l 2.715,-3.387 -10.903,-6.406" /><path
         id="path98"
         style="fill:#ffffff;fill-opacity:1;fill-rule:nonzero;stroke:none"
         d="m 699.441,496.734 -5.039,9.637 3.774,1.895 2.691,-4.188 23.996,12.559 -37.043,-0.637 20.571,28.762 -22.688,-10.547 2.07,-5.285 -3.769,-1.903 -2.981,6.289 -5.078,9.707 3.782,1.903 3.386,-5.594 29.321,13.496 -2.7,6.524 3.774,1.902 4.89,-9.902 3.165,-6.102 -16.79,-23.047 28.008,0.762 2.422,-5.012 6.731,-13.164 -3.782,-1.902 -3.738,6.297 -28.391,-15.36 2.825,-6.758 -3.77,-1.894 -5.637,11.562" /><path
         id="path100"
         style="fill:#ffffff;fill-opacity:1;fill-rule:nonzero;stroke:none"
         d="m 711.008,462.984 -3.867,12.371 4.05,1.204 2.571,-6.496 30.75,9.14 -1.485,6.817 4.051,1.203 3.527,-12.473 3.782,-12.117 -4.043,-1.203 -2.485,6.523 -30.757,-9.14 1.406,-6.836 -4.055,-1.211 -3.445,12.218" /><path
         id="path102"
         style="fill:#ffffff;fill-opacity:1;fill-rule:nonzero;stroke:none"
         d="m 760.496,400.563 -37.066,-5.157 -1.008,7.235 25.937,28.273 -24.089,-3.34 0.371,-6.445 -4.27,-0.598 -0.984,8.996 -1.653,9.95 4.192,0.578 1.394,-6.301 30.75,4.269 c 1.125,1.297 1.086,3.485 0.5,7.715 l 4.356,0.606 2.375,-17.063 -23.418,-25.722 21.773,3.027 -0.371,6.445 4.192,0.578 1.152,-8.964 1.465,-9.895 -4.192,-0.586 -1.406,6.399" /><path
         id="path104"
         style="fill:#ffffff;fill-opacity:1;fill-rule:nonzero;stroke:none"
         d="m 756.492,361.918 -12.469,5.324 -0.214,-9.394 z m -32.207,-16.938 0.141,13.657 4.219,-0.098 0.386,-6.008 9.739,3.426 0.3,13.656 -9.566,4.035 -0.688,-7.375 -4.226,0.098 0.39,9.563 -0.085,7.656 4.128,-0.098 0.52,-3.84 36.055,-15.937 c 0.718,-2.449 2.312,-4.754 3.562,-6.434 l -0.039,-1.82 -40.359,-15.109 -0.703,-4.247 -4.219,0.094 0.445,8.781" /><path
         id="path106"
         style="fill:#ffffff;fill-opacity:1;fill-rule:nonzero;stroke:none"
         d="m 925.469,563.656 v -83.543 h -18.145 v 83.543 h -29.101 v 15.449 h 76.496 v -15.449 h -29.25" /><path
         id="path108"
         style="fill:#ffffff;fill-opacity:1;fill-rule:nonzero;stroke:none"
         d="m 985.32,536.363 c -2.254,0 -7.05,-1.652 -7.652,-2.105 -0.297,-0.297 -4.797,-4.649 -5.695,-10.945 h 26.992 c -0.598,7.796 -1.945,13.05 -13.645,13.05 z m -13.953,-24.3 c 0.449,-9.297 7.196,-18.45 17.703,-18.45 7.2,0 15.15,3 23.55,9.899 l 1.65,-17.699 c -8.1,-4.801 -15.454,-7.649 -28.801,-7.649 -19.051,0 -33.301,13.496 -33.301,35.699 0,22.5 13.801,35.996 33.152,35.996 23.24,0 30,-12.3 30,-37.796 h -43.953" /><path
         id="path110"
         style="fill:#ffffff;fill-opacity:1;fill-rule:nonzero;stroke:none"
         d="m 1065.43,478.164 c -19.8,0 -33.6,13.352 -33.6,36.445 0,24.602 16.5,35.25 31.79,35.25 13.96,0 25.66,-3.148 25.66,-14.097 v -3.903 c 0,-1.199 0,-2.402 -0.15,-3.898 h -17.56 c 0,6.297 -1.64,7.5 -6.44,7.5 -3.16,0 -4.65,-0.301 -5.71,-0.75 -1.49,-0.598 -8.39,-4.348 -8.39,-19.652 0,-17.547 9.9,-21.446 17.54,-21.446 4.65,0 10.05,0.297 19.96,8.696 l 1.65,-16.797 c -9.46,-5.551 -16.35,-7.348 -24.75,-7.348" /><path
         id="path112"
         style="fill:#ffffff;fill-opacity:1;fill-rule:nonzero;stroke:none"
         d="m 1170.57,480.113 h -18.15 c 0.3,17.25 0.6,20.848 0.6,30 0,19.2 -0.6,24 -8.1,24 -2.85,0 -7.35,-0.601 -8.55,-1.5 -1.05,-0.754 -5.85,-4.351 -9,-8.101 v -44.399 h -18.15 v 109.496 h 18.15 V 541.91 c 5.25,5.246 11.25,7.949 18.6,7.949 23.25,0 25.35,-14.398 25.35,-29.546 0,-2.7 -0.15,-5.551 -0.15,-8.25 -0.15,-9.754 -0.15,-14.852 -0.6,-31.95" /><path
         id="path114"
         style="fill:#ffffff;fill-opacity:1;fill-rule:nonzero;stroke:none"
         d="m 1253.68,480.113 h -18.15 c 0.45,19.797 0.59,21.598 0.59,34.496 0,2.555 0,5.551 -0.29,8.403 -0.61,8.699 -2.4,11.101 -7.8,11.101 -2.85,0 -7.65,-0.601 -8.55,-1.5 -1.05,-0.754 -6,-4.351 -9,-8.101 v -44.399 h -18.15 v 47.848 c 0,6 -1.05,16.352 -1.8,20.102 h 16.2 l 1.8,-7.954 c 6,6.75 12.75,9.75 20.55,9.75 23.24,0 25.34,-14.398 25.34,-29.546 v -8.25 c -0.14,-9.754 -0.29,-14.852 -0.74,-31.95" /><path
         id="path116"
         style="fill:#ffffff;fill-opacity:1;fill-rule:nonzero;stroke:none"
         d="m 1274.83,480.113 v 67.95 h 18.15 v -67.95 z m 9,80.844 c -5.7,0 -10.65,4.949 -10.65,10.953 0,6 4.95,10.801 10.65,10.801 5.85,0 10.5,-4.652 10.5,-10.648 0,-6.004 -4.65,-11.106 -10.5,-11.106" /><path
         id="path118"
         style="fill:#ffffff;fill-opacity:1;fill-rule:nonzero;stroke:none"
         d="m 1334.52,478.164 c -8.54,0 -17.24,1.797 -24.89,6.598 l 1.94,15 c 7.96,-4.649 12.61,-6.75 22.5,-6.75 8.7,0 10.66,2.703 10.66,4.953 0,10.797 -35.26,7.797 -35.26,32.246 0,12.148 10.21,19.648 28.06,19.648 8.69,0 13.94,-1.796 23.4,-6 l -2.1,-15.898 c -9.15,6.75 -17.26,7.352 -22.2,7.352 -3.01,0 -9,-0.75 -9,-4.5 0,-10.204 35.54,-8.551 35.54,-31.348 0,-11.402 -9.9,-21.301 -28.65,-21.301" /><path
         id="path120"
         style="fill:#ffffff;fill-opacity:1;fill-rule:nonzero;stroke:none"
         d="m 1411.17,478.164 c -19.8,0 -33.6,13.352 -33.6,36.445 0,24.602 16.5,35.25 31.8,35.25 13.95,0 25.65,-3.148 25.65,-14.097 v -3.903 c 0,-1.199 0,-2.402 -0.15,-3.898 h -17.56 c 0,6.297 -1.64,7.5 -6.44,7.5 -3.16,0 -4.65,-0.301 -5.7,-0.75 -1.5,-0.598 -8.4,-4.348 -8.4,-19.652 0,-17.547 9.9,-21.446 17.55,-21.446 4.64,0 10.05,0.297 19.95,8.696 l 1.65,-16.797 c -9.46,-5.551 -16.35,-7.348 -24.75,-7.348" /><path
         id="path122"
         style="fill:#ffffff;fill-opacity:1;fill-rule:nonzero;stroke:none"
         d="m 1513.31,480.113 h -18.14 c 0.3,17.25 0.59,20.848 0.59,30 0,19.2 -0.59,24 -8.09,24 -2.86,0 -7.36,-0.601 -8.56,-1.5 -1.04,-0.754 -5.85,-4.351 -8.99,-8.101 v -44.399 h -18.16 v 109.496 h 18.16 V 541.91 c 5.24,5.246 11.25,7.949 18.59,7.949 23.25,0 25.35,-14.398 25.35,-29.546 0,-2.7 -0.14,-5.551 -0.14,-8.25 -0.16,-9.754 -0.16,-14.852 -0.61,-31.95" /><path
         id="path124"
         style="fill:#ffffff;fill-opacity:1;fill-rule:nonzero;stroke:none"
         d="m 1562.67,536.363 c -2.26,0 -7.05,-1.652 -7.66,-2.105 -0.29,-0.297 -4.8,-4.649 -5.69,-10.945 h 26.99 c -0.6,7.796 -1.94,13.05 -13.64,13.05 z m -13.96,-24.3 c 0.45,-9.297 7.2,-18.45 17.71,-18.45 7.19,0 15.14,3 23.54,9.899 l 1.65,-17.699 c -8.09,-4.801 -15.45,-7.649 -28.8,-7.649 -19.05,0 -33.3,13.496 -33.3,35.699 0,22.5 13.8,35.996 33.16,35.996 23.24,0 30,-12.3 30,-37.796 h -43.96" /><path
         id="path126"
         style="fill:#ffffff;fill-opacity:1;fill-rule:nonzero;stroke:none"
         d="m 969.121,355.352 c 0,-25.789 -17.695,-37.039 -42.004,-37.039 -20.242,0 -39.441,11.843 -39.441,33.289 v 67.351 h 18.148 v -63.14 c 0,-17.559 12.446,-21.907 21.903,-21.907 11.394,0 23.242,4.5 23.242,22.051 v 62.996 h 18.152 v -63.601" /><path
         id="path128"
         style="fill:#ffffff;fill-opacity:1;fill-rule:nonzero;stroke:none"
         d="m 1049.81,320.109 h -18.14 c 0.45,19.793 0.6,21.602 0.6,34.5 0,2.547 0,5.547 -0.3,8.399 -0.6,8.703 -2.4,11.094 -7.8,11.094 -2.85,0 -7.65,-0.594 -8.54,-1.493 -1.06,-0.754 -6.01,-4.355 -9.01,-8.105 v -44.395 h -18.143 v 47.852 c 0,5.992 -1.055,16.348 -1.805,20.098 h 16.198 l 1.8,-7.95 c 6,6.746 12.75,9.746 20.55,9.746 23.25,0 25.35,-14.394 25.35,-29.55 v -8.242 c -0.15,-9.758 -0.3,-14.856 -0.76,-31.954" /><path
         id="path130"
         style="fill:#ffffff;fill-opacity:1;fill-rule:nonzero;stroke:none"
         d="m 1072.02,320.109 v 67.95 h 18.15 v -67.95 z m 9,80.844 c -5.7,0 -10.65,4.949 -10.65,10.953 0,6 4.95,10.797 10.65,10.797 5.85,0 10.49,-4.652 10.49,-10.648 0,-6 -4.64,-11.102 -10.49,-11.102" /><path
         id="path132"
         style="fill:#ffffff;fill-opacity:1;fill-rule:nonzero;stroke:none"
         d="m 1143.26,318.156 h -13.64 l -25.35,69.903 h 19.5 l 13.05,-41.399 13.35,41.399 h 18.3 l -25.21,-69.903" /><path
         id="path134"
         style="fill:#ffffff;fill-opacity:1;fill-rule:nonzero;stroke:none"
         d="m 1211.97,376.359 c -2.25,0 -7.05,-1.652 -7.65,-2.101 -0.3,-0.305 -4.8,-4.649 -5.7,-10.957 h 27 c -0.6,7.804 -1.95,13.058 -13.65,13.058 z m -13.95,-24.296 c 0.45,-9.309 7.19,-18.458 17.7,-18.458 7.2,0 15.15,3.008 23.55,9.903 l 1.65,-17.695 c -8.1,-4.805 -15.45,-7.657 -28.8,-7.657 -19.05,0 -33.3,13.504 -33.3,35.703 0,22.5 13.8,35.996 33.15,35.996 23.24,0 30,-12.296 30,-37.792 h -43.95" /><path
         id="path136"
         style="fill:#ffffff;fill-opacity:1;fill-rule:nonzero;stroke:none"
         d="m 1289.22,367.656 c -0.15,3.301 0.16,7.051 -2.7,7.051 -2.4,0 -4.2,-3.152 -7.05,-8.254 v -46.344 h -18.14 v 47.996 c 0,6.602 -0.75,13.348 -1.81,19.954 h 16.2 l 1.8,-8.11 c 2.55,4.809 8.86,9.758 14.4,9.758 9,0 12.01,-5.551 12.01,-13.801 0,-2.097 -0.16,-4.351 -0.46,-6.453 l -14.25,-1.797" /><path
         id="path138"
         style="fill:#ffffff;fill-opacity:1;fill-rule:nonzero;stroke:none"
         d="m 1340.66,318.156 c -8.54,0 -17.24,1.805 -24.89,6.602 l 1.94,15 c 7.96,-4.649 12.61,-6.75 22.5,-6.75 8.71,0 10.66,2.695 10.66,4.953 0,10.801 -35.25,7.793 -35.25,32.242 0,12.152 10.2,19.652 28.05,19.652 8.7,0 13.95,-1.796 23.4,-6.003 l -2.1,-15.891 c -9.15,6.746 -17.26,7.344 -22.21,7.344 -2.99,0 -8.99,-0.754 -8.99,-4.504 0,-10.196 35.55,-8.543 35.55,-31.348 0,-11.394 -9.91,-21.297 -28.66,-21.297" /><path
         id="path140"
         style="fill:#ffffff;fill-opacity:1;fill-rule:nonzero;stroke:none"
         d="m 1388.07,320.109 v 67.95 h 18.14 v -67.95 z m 8.99,80.844 c -5.69,0 -10.64,4.949 -10.64,10.953 0,6 4.95,10.797 10.64,10.797 5.85,0 10.5,-4.652 10.5,-10.648 0,-6 -4.65,-11.102 -10.5,-11.102" /><path
         id="path142"
         style="fill:#ffffff;fill-opacity:1;fill-rule:nonzero;stroke:none"
         d="m 1450.76,318.156 c -10.19,0 -17.69,6.453 -17.69,19.051 v 38.699 h -9.91 v 12 h 9.91 v 23.102 h 17.85 v -22.949 h 14.84 v -12.004 h -14.84 v -35.242 c 0,-6.602 1.79,-6.907 3.45,-6.907 4.05,0 9.29,3 12.59,4.953 l 1.8,-15 c -5.85,-3.3 -12.3,-5.703 -18,-5.703" /><path
         id="path144"
         style="fill:#ffffff;fill-opacity:1;fill-rule:nonzero;stroke:none"
         d="m 1524.11,399.004 c -5.4,0 -9.6,4.504 -9.6,9.902 0,5.547 3.9,10.348 9.6,10.348 5.4,0 9.6,-4.801 9.6,-10.199 0,-5.547 -4.2,-10.051 -9.6,-10.051 z m -5.7,-49.199 c -7.2,-1.797 -11.1,-2.996 -17.7,-5.852 -0.75,-2.098 -0.9,-2.848 -0.9,-5.094 0,-3.898 0.9,-7.199 5.4,-7.199 3.31,0 7.95,2.246 13.2,8.098 z m -19.65,49.199 c -5.4,0 -9.6,4.504 -9.6,9.902 0,5.547 3.91,10.348 9.6,10.348 5.4,0 9.6,-4.801 9.6,-10.199 0,-5.547 -4.2,-10.051 -9.6,-10.051 z m 23.85,-78.895 c -0.9,2.852 -1.05,4.051 -1.8,7.95 -3.3,-4.797 -10.19,-9.903 -18.9,-9.903 -11.85,0 -19.8,7.207 -19.8,16.953 0,5.996 1.2,11.7 3.3,14.246 3.6,4.805 23.7,10.352 33,12.149 v 5.098 c 0,7.351 -1.05,9.757 -8.69,9.757 -3.01,0 -8.7,-0.16 -9.6,-1.652 -0.91,-1.648 -0.75,-2.703 -0.91,-5.254 l -14.7,-1.348 c 0,1.055 -0.14,1.954 -0.14,2.852 0,3.75 0.59,6.895 1.49,10.195 0.75,2.7 11.55,8.703 25.35,8.703 15.9,0 25.5,-7.355 25.5,-19.503 v -30.149 c 0,-7.5 1.35,-15 2.4,-20.094 h -16.5" /><path
         id="path146"
         style="fill:#ffffff;fill-opacity:1;fill-rule:nonzero;stroke:none"
         d="m 1578.11,318.156 c -10.2,0 -17.7,6.453 -17.7,19.051 v 38.699 h -9.9 v 12 h 9.9 v 23.102 h 17.85 v -22.949 h 14.85 v -12.004 h -14.85 v -35.242 c 0,-6.602 1.8,-6.907 3.45,-6.907 4.05,0 9.3,3 12.6,4.953 l 1.79,-15 c -5.85,-3.3 -12.29,-5.703 -17.99,-5.703" /><path
         id="path148"
         style="fill:#ffffff;fill-opacity:1;fill-rule:nonzero;stroke:none"
         d="m 924.27,205.109 h -16.196 v -30.304 h 15.293 c 14.25,0 19.809,4.648 19.809,15.304 0,10.047 -7.199,15 -18.906,15 z M 922.473,245 908.074,244.855 v -25.05 h 13.047 c 11.848,0 16.047,5.097 16.047,12.597 0,6.907 -4.941,12.598 -14.695,12.598 z m 6.453,-84.891 h -39.004 v 98.243 c 11.699,0.75 23.398,1.355 35.254,1.355 22.344,0 31.347,-12.305 31.347,-25.203 0,-8.547 -4.355,-18 -12.597,-21.145 11.25,-1.504 18.594,-12.304 18.594,-25.203 0,-16.797 -13.797,-28.047 -33.594,-28.047" /><path
         id="path150"
         style="fill:#ffffff;fill-opacity:1;fill-rule:nonzero;stroke:none"
         d="m 1006.91,207.656 c -0.14,3.301 0.16,7.051 -2.69,7.051 -2.4,0 -4.2,-3.152 -7.052,-8.254 v -46.344 h -18.145 v 47.996 c 0,6.602 -0.753,13.348 -1.804,19.954 h 16.199 l 1.797,-8.11 c 2.551,4.809 8.855,9.758 14.405,9.758 8.99,0 12,-5.555 12,-13.801 0,-2.097 -0.16,-4.351 -0.46,-6.453 l -14.25,-1.797" /><path
         id="path152"
         style="fill:#ffffff;fill-opacity:1;fill-rule:nonzero;stroke:none"
         d="m 1066.02,189.805 c -7.2,-1.797 -11.1,-2.996 -17.7,-5.852 -0.75,-2.098 -0.9,-2.848 -0.9,-5.094 0,-3.898 0.9,-7.199 5.4,-7.199 3.3,0 7.95,2.246 13.2,8.098 z m 4.19,-29.696 c -0.89,2.852 -1.04,4.051 -1.79,7.95 -3.3,-4.797 -10.2,-9.903 -18.9,-9.903 -11.85,0 -19.8,7.207 -19.8,16.953 0,5.996 1.2,11.7 3.3,14.246 3.6,4.805 23.7,10.352 33,12.149 v 5.098 c 0,7.351 -1.05,9.757 -8.7,9.757 -3,0 -8.7,-0.16 -9.6,-1.652 -0.9,-1.648 -0.75,-2.703 -0.9,-5.254 l -14.7,-1.348 c 0,1.055 -0.15,1.954 -0.15,2.852 0,3.75 0.6,6.895 1.5,10.195 0.75,2.707 11.55,8.703 25.35,8.703 15.9,0 25.5,-7.355 25.5,-19.503 v -30.149 c 0,-7.5 1.34,-15 2.4,-20.094 h -16.51" /><path
         id="path154"
         style="fill:#ffffff;fill-opacity:1;fill-rule:nonzero;stroke:none"
         d="m 1150.76,160.109 -1.8,7.95 c -5.4,-6.301 -12.14,-9.903 -20.55,-9.903 -18,0 -24.6,8.25 -24.6,25.352 v 44.551 h 18.15 v -43.047 c 0,-6.153 0.45,-11.106 7.65,-11.106 1.95,0 6.45,0.305 8.25,1.348 2.4,1.809 7.05,5.703 9.15,8.254 v 44.551 h 18.15 v -47.856 c 0,-6.746 0.75,-13.492 1.8,-20.094 h -16.2" /><path
         id="path156"
         style="fill:#ffffff;fill-opacity:1;fill-rule:nonzero;stroke:none"
         d="m 1246.92,160.109 h -18.15 c 0.45,19.793 0.6,21.602 0.6,34.5 0,2.547 0,5.547 -0.3,8.399 -0.6,8.703 -2.4,11.094 -7.8,11.094 -2.85,0 -7.65,-0.594 -8.55,-1.493 -1.05,-0.754 -6,-4.355 -9,-8.105 v -44.395 h -18.14 v 47.852 c 0,5.992 -1.06,16.348 -1.81,20.098 h 16.2 l 1.8,-7.95 c 6,6.746 12.75,9.746 20.55,9.746 23.25,0 25.35,-14.394 25.35,-29.55 v -8.242 c -0.15,-9.758 -0.3,-14.856 -0.75,-31.954" /><path
         id="path158"
         style="fill:#ffffff;fill-opacity:1;fill-rule:nonzero;stroke:none"
         d="m 1289.22,158.156 c -8.55,0 -17.25,1.805 -24.89,6.602 l 1.94,15 c 7.96,-4.649 12.61,-6.75 22.5,-6.75 8.7,0 10.65,2.695 10.65,4.953 0,10.801 -35.25,7.793 -35.25,32.242 0,12.152 10.21,19.652 28.06,19.652 8.7,0 13.94,-1.796 23.4,-5.996 l -2.1,-15.898 c -9.15,6.746 -17.26,7.344 -22.21,7.344 -3,0 -9,-0.754 -9,-4.504 0,-10.196 35.55,-8.543 35.55,-31.348 0,-11.394 -9.9,-21.297 -28.65,-21.297" /><path
         id="path160"
         style="fill:#ffffff;fill-opacity:1;fill-rule:nonzero;stroke:none"
         d="m 1362.42,158.156 c -19.8,0 -33.6,13.348 -33.6,36.453 0,24.602 16.5,35.246 31.8,35.246 13.95,0 25.65,-3.144 25.65,-14.101 v -3.899 c 0,-1.199 0,-2.402 -0.15,-3.894 h -17.56 c 0,6.297 -1.64,7.5 -6.44,7.5 -3.16,0 -4.65,-0.305 -5.7,-0.754 -1.5,-0.605 -8.4,-4.355 -8.4,-19.648 0,-17.547 9.9,-21.454 17.55,-21.454 4.64,0 10.05,0.301 19.95,8.7 l 1.65,-16.797 c -9.46,-5.547 -16.35,-7.352 -24.75,-7.352" /><path
         id="path162"
         style="fill:#ffffff;fill-opacity:1;fill-rule:nonzero;stroke:none"
         d="m 1464.11,160.109 h -18.14 c 0.3,17.246 0.59,20.848 0.59,30 0,19.2 -0.59,23.993 -8.09,23.993 -2.85,0 -7.36,-0.594 -8.56,-1.493 -1.04,-0.754 -5.85,-4.355 -8.99,-8.105 v -44.395 h -18.16 v 109.493 h 18.16 v -47.696 c 5.24,5.25 11.25,7.949 18.59,7.949 23.25,0 25.35,-14.394 25.35,-29.55 0,-2.696 -0.14,-5.547 -0.14,-8.242 -0.16,-9.758 -0.16,-14.856 -0.61,-31.954" /><path
         id="path164"
         style="fill:#ffffff;fill-opacity:1;fill-rule:nonzero;stroke:none"
         d="m 1548.87,158.156 h -10.21 l -13.8,31.953 -12.59,-31.953 h -10.36 l -27.14,69.903 h 19.19 l 14.41,-39.153 16.49,41.399 17.55,-42.149 13.95,39.903 h 17.56 l -25.05,-69.903" /><path
         id="path166"
         style="fill:#ffffff;fill-opacity:1;fill-rule:nonzero;stroke:none"
         d="m 1612.17,216.359 c -2.26,0 -7.05,-1.652 -7.66,-2.101 -0.29,-0.305 -4.79,-4.649 -5.69,-10.957 h 26.99 c -0.6,7.804 -1.94,13.058 -13.64,13.058 z m -13.96,-24.296 c 0.45,-9.309 7.2,-18.458 17.71,-18.458 7.2,0 15.14,3.008 23.54,9.903 l 1.65,-17.695 c -8.09,-4.805 -15.45,-7.657 -28.8,-7.657 -19.05,0 -33.3,13.504 -33.3,35.703 0,22.5 13.8,35.996 33.16,35.996 23.24,0 30,-12.296 30,-37.792 h -43.96" /><path
         id="path168"
         style="fill:#ffffff;fill-opacity:1;fill-rule:nonzero;stroke:none"
         d="m 1660.02,160.109 v 67.95 h 18.14 v -67.95 z m 8.99,80.848 c -5.69,0 -10.64,4.949 -10.64,10.949 0,5.996 4.95,10.797 10.64,10.797 5.85,0 10.5,-4.644 10.5,-10.652 0,-5.996 -4.65,-11.094 -10.5,-11.094" /><path
         id="path170"
         style="fill:#ffffff;fill-opacity:1;fill-rule:nonzero;stroke:none"
         d="m 1727.21,216.199 c -4.8,0 -8.1,-1.648 -8.85,-2.39 -0.75,-0.75 -3.45,-4.649 -3.45,-9.903 0,-7.351 4.5,-12.597 12.3,-12.597 4.05,0 7.95,1.945 8.55,2.402 0.75,0.742 3.45,3.594 3.45,10.195 0,7.199 -3.3,12.293 -12,12.293 z m 9.6,-62.84 c -7.2,0 -11.1,-0.605 -18,-0.75 -4.2,-3 -7.35,-5.996 -7.35,-9.906 0,-5.691 4.5,-7.34 14.25,-7.34 14.1,0 20.7,7.645 20.7,13.348 0,3.898 -0.45,4.648 -9.6,4.648 z m 20.25,58.496 c 0.9,-2.695 1.35,-4.5 1.35,-7.8 0,-16.047 -12.3,-26.848 -31.65,-26.848 -2.7,0 -5.4,0.148 -9,1.199 -2.4,-2.398 -4.35,-3.894 -4.35,-6.902 0,-2.551 2.25,-3.301 3.75,-3.301 7.5,0 13.95,0.75 21.45,0.75 16.19,0 26.25,-2.242 26.25,-17.996 0,-19.648 -21.3,-29.551 -40.95,-29.551 -15.9,0 -29.4,2.852 -29.4,16.348 0,9.902 7.36,13.809 12.15,16.504 -3.9,1.203 -10.35,4.199 -10.35,12.004 0,7.343 8.1,10.945 13.65,15.593 -8.85,4.954 -14.25,10.208 -14.25,22.2 0,14.851 12.75,25.8 31.2,25.8 9.45,0 13.95,-2.406 18.15,-4.953 3.45,0 14.25,0 23.25,2.403 v -15.45 h -11.25" /></g></g></svg>